<?xml version="1.0" encoding="utf-8"?>
<!-- Generator: Adobe Illustrator 27.4.0, SVG Export Plug-In . SVG Version: 6.00 Build 0)  -->
<svg version="1.1" id="_デザイン" xmlns="http://www.w3.org/2000/svg" xmlns:xlink="http://www.w3.org/1999/xlink" x="0px"
	 y="0px" viewBox="0 0 153.9 8.5" style="enable-background:new 0 0 153.9 8.5;" xml:space="preserve">
<style type="text/css">
	.st0{fill:#0064FF;}
</style>
<g>
	<g>
		<path class="st0" d="M0,5.3h0.8c0,0.5,0.5,1.1,1.4,1.1c0.8,0,1.3-0.5,1.3-1.1c0-0.6-0.5-0.9-1.1-1L1.6,4.1C0.3,3.8,0,3,0,2.5
			c0-1.1,1-1.8,2-1.8c1.1,0,2,0.7,2,1.8H3.2c0-0.6-0.5-1-1.2-1c-0.6,0-1.2,0.4-1.2,1c0,0.2,0.1,0.6,0.9,0.9l0.8,0.2
			c1.1,0.3,1.7,0.8,1.7,1.7c0,1-0.8,1.9-2.1,1.9C0.9,7.2,0,6.3,0,5.3z"/>
		<path class="st0" d="M9.7,4.6V7H8.9V4.7c0-0.7-0.4-1.2-1-1.2S6.6,3.9,6.6,4.8V7H5.8V0.6h0.8v2.9C6.8,3,7.5,2.7,8,2.7
			C9,2.7,9.7,3.4,9.7,4.6z"/>
		<path class="st0" d="M11.3,1.3c0-0.3,0.3-0.5,0.5-0.5c0.3,0,0.6,0.2,0.6,0.5c0,0.3-0.3,0.5-0.6,0.5C11.5,1.8,11.3,1.6,11.3,1.3z
			 M11.4,7V2.8h0.8V7H11.4z"/>
		<path class="st0" d="M17.9,4.6V7h-0.8V4.7c0-0.7-0.4-1.2-1-1.2s-1.3,0.4-1.3,1.3V7H14V2.8h0.8v0.6C15,3,15.7,2.7,16.2,2.7
			C17.2,2.7,17.9,3.4,17.9,4.6L17.9,4.6z"/>
		<path class="st0" d="M19.5,1.3c0-0.3,0.3-0.5,0.5-0.5c0.3,0,0.6,0.2,0.6,0.5c0,0.3-0.3,0.5-0.6,0.5C19.7,1.8,19.5,1.6,19.5,1.3z
			 M19.6,7V2.8h0.8V7H19.6z"/>
		<path class="st0" d="M26.1,4.6V7h-0.8V4.7c0-0.7-0.4-1.2-1-1.2S23,3.9,23,4.8V7h-0.8V2.8H23v0.6c0.3-0.5,0.9-0.7,1.4-0.7
			C25.5,2.7,26.1,3.4,26.1,4.6L26.1,4.6z"/>
		<path class="st0" d="M33.9,0.6h0.8V7h-0.8V6.4c-0.3,0.5-0.9,0.8-1.5,0.8c-1.2,0-2.1-0.9-2.1-2.2c0-1.3,0.9-2.2,2.1-2.2
			c0.6,0,1.2,0.3,1.5,0.8V0.6z M33.9,4.9c0-0.9-0.7-1.5-1.4-1.5c-0.8,0-1.4,0.6-1.4,1.5c0,0.8,0.6,1.5,1.4,1.5
			C33.2,6.4,33.9,5.8,33.9,4.9z"/>
		<path class="st0" d="M38.7,8.5c-1.5,0-2.5-1.6-2.5-4c0-2.4,1-4,2.5-4v0.7c-1,0-1.7,1.4-1.7,3.3s0.7,3.3,1.7,3.3V8.5L38.7,8.5z"/>
		<path class="st0" d="M43.3,4.3h-0.8l-1-2.6l-1,2.6h-0.8l1.4-3.5h0.7L43.3,4.3L43.3,4.3z"/>
		<path class="st0" d="M44.6,8V7.3h5V8H44.6z"/>
		<path class="st0" d="M54.5,4.3h-0.8l-1-2.6l-1,2.6H51l1.4-3.5h0.7L54.5,4.3L54.5,4.3z"/>
		<path class="st0" d="M55.7,4.9c0-1.3,1-2.2,2.2-2.2s2.2,0.9,2.2,2.2s-1,2.2-2.2,2.2S55.7,6.3,55.7,4.9z M59.4,4.9
			c0-0.9-0.6-1.5-1.4-1.5c-0.8,0-1.4,0.6-1.4,1.5c0,0.9,0.6,1.5,1.4,1.5C58.7,6.4,59.4,5.8,59.4,4.9z"/>
		<path class="st0" d="M61.2,7.8c1,0,1.7-1.4,1.7-3.3s-0.7-3.3-1.7-3.3V0.5c1.5,0,2.4,1.6,2.4,4c0,2.4-1,4-2.4,4
			C61.2,8.5,61.2,7.8,61.2,7.8z"/>
	</g>
	<g>
		<path class="st0" d="M105.1,2.9c0.6,0.4,0.9,0.6,1.5,1.2l-0.5,0.6c-0.5-0.6-0.9-0.8-1.5-1.3C104.6,3.5,105.1,2.9,105.1,2.9z
			 M105.2,7.4c1.8-0.6,3-1.4,4-2.4c0.6-0.6,1.1-1.2,1.8-2.5c0.2,0.3,0.3,0.4,0.6,0.6c-0.7,1.2-1.1,1.7-1.8,2.4
			c-1.1,1.1-2.4,1.9-3.9,2.5c0,0.1-0.1,0.2-0.1,0.2s-0.1,0-0.2-0.1C105.6,8.1,105.2,7.4,105.2,7.4z M106.2,0.8
			c0.6,0.4,0.9,0.6,1.5,1.2l-0.6,0.6c-0.5-0.6-0.9-0.8-1.5-1.3L106.2,0.8L106.2,0.8z"/>
		<path class="st0" d="M112.5,4.3c0.5,0,1-0.1,1.9-0.2c-0.1-1.1-0.2-1.5-0.3-2l0.7,0h0c0.1,0,0.2,0,0.2,0.1c0,0.1,0,0.1-0.1,0.2
			c0,0.3,0.1,0.7,0.2,1.7l2.7-0.4l0.1-0.1l0.5,0.5c0,0,0.1,0.1,0.1,0.1c0,0.1,0,0.1-0.1,0.2c-0.4,0.9-0.9,1.7-1.6,2.3
			c-0.1-0.2-0.3-0.4-0.5-0.5c0.6-0.5,1-1.1,1.3-1.7l-2.4,0.4l0.2,1.6c0.1,1.1,0.2,1.6,0.3,2.1l-0.8,0.1c0-0.5-0.1-1.1-0.2-2.1
			l-0.2-1.6c-0.9,0.1-1.4,0.2-1.8,0.3C112.7,5.1,112.5,4.3,112.5,4.3z"/>
		<path class="st0" d="M123.8,3.3c0.1,0,0.1,0,0.1,0.1c0,0.1,0,0.1-0.1,0.2c0,0.5,0,0.7,0,1.3v1.8c0,0.6,0,1,0,1.7H123
			c0-0.5,0-0.9,0-1.7V4.9c0-0.4,0-0.7,0-1.1c-0.8,0.8-1.8,1.6-2.9,2.3c-0.1-0.3-0.3-0.4-0.5-0.6c1.9-1.1,3.3-2.4,4.3-3.8
			c0.4-0.5,0.5-0.8,0.7-1.1l0.7,0.3c0.1,0,0.1,0.1,0.1,0.1c0,0.1-0.1,0.1-0.2,0.1c-0.7,1.1-1,1.4-1.7,2.2
			C123.5,3.3,123.8,3.3,123.8,3.3z"/>
		<path class="st0" d="M133.4,7.1c-0.5,0-1-0.1-1.5-0.1h-4c-0.6,0-0.9,0-1.5,0.1V6.3c0.5,0,1,0.1,1.5,0.1h4c0.5,0,0.9,0,1.5-0.1V7.1
			z M132.4,2.7c-0.4,0-0.9,0-1.1,0h-2.7c-0.4,0-0.7,0-1.1,0V1.9c0.3,0,0.8,0,1.1,0h2.7c0.4,0,0.7,0,1.1,0V2.7z"/>
		<path class="st0" d="M135.5,1.2c0.8,0.5,1.2,0.8,1.8,1.5l-0.6,0.6c-0.6-0.7-1-1.1-1.7-1.6C135,1.7,135.5,1.2,135.5,1.2z
			 M135.4,7.1c1.4-0.6,2.4-1.3,3.3-2.1c1-0.9,1.5-1.6,2.2-3.1c0.2,0.3,0.3,0.4,0.6,0.6c-0.7,1.3-1.3,2.2-2.2,3
			c-0.8,0.7-1.6,1.3-3.1,2.1c0,0.2-0.1,0.2-0.1,0.2c0,0-0.1,0-0.1-0.1L135.4,7.1L135.4,7.1z"/>
		<path class="st0" d="M149.6,0.6c0.1,0,0.1,0.1,0.1,0.1c0,0.1,0,0.1-0.2,0.2c-0.1,0.4-0.3,0.7-0.4,1h2.5l0.1-0.1l0.6,0.5
			c0.1,0.1,0.1,0.1,0.1,0.1c0,0.1,0,0.1-0.2,0.2c-0.3,1.5-0.7,2.5-1.4,3.4c-0.7,1-1.6,1.6-3.1,2.3c-0.1-0.3-0.2-0.4-0.4-0.7
			c1.5-0.7,2.2-1.2,2.9-2.2c0.6-0.8,1-1.7,1.2-2.8h-2.6c-0.6,0.9-0.8,1.2-1.8,2.2c-0.2-0.3-0.3-0.4-0.6-0.5c1.1-1,1.7-1.9,2.2-3.2
			c0.1-0.2,0.1-0.4,0.2-0.8C148.9,0.4,149.6,0.6,149.6,0.6z M152,0.7c0.5,0.3,0.8,0.5,1.2,1l-0.4,0.4c-0.4-0.5-0.7-0.7-1.2-1
			L152,0.7z M152.7,0c0.5,0.3,0.8,0.5,1.2,1l-0.4,0.4c-0.4-0.5-0.7-0.7-1.2-1C152.4,0.4,152.7,0,152.7,0z"/>
	</g>
</g>
</svg>
